<svg data-v-0dd9719b="" version="1.0" xmlns="http://www.w3.org/2000/svg" xmlns:xlink="http://www.w3.org/1999/xlink" width="100%" height="100%" viewBox="0 0 340.000000 250.000000" preserveAspectRatio="xMidYMid meet" color-interpolation-filters="sRGB" style="margin: auto;"> <rect data-v-0dd9719b="" x="0" y="0" width="100%" height="100%" fill="#fff" fill-opacity="1" class="background"></rect> <rect data-v-0dd9719b="" x="0" y="0" width="100%" height="100%" fill="url(#watermark)" fill-opacity="1" class="watermarklayer"></rect> <g data-v-0dd9719b="" fill="#333" class="icon-text-wrapper icon-svg-group iconsvg" transform="translate(47.929168701171875,95)"><g class="iconsvg-imagesvg" transform="translate(0,0)"><g><rect fill="#333" fill-opacity="0" stroke-width="2" x="0" y="0" width="60" height="60" class="image-rect"></rect> <svg x="0" y="0" width="60" height="60" filtersec="colorsb6077319678" class="image-svg-svg primary" style="overflow: visible;"><svg xmlns="http://www.w3.org/2000/svg" viewBox="0 0 100 100"><title>资源 163</title><path d="M0 100V73.07h73.07V34.62H100V100z" fill="#0091cc" fill-rule="evenodd"></path><path d="M100 0v26.92H26.92v38.46H0V0z" fill="#004685" fill-rule="evenodd"></path><path fill="#00c2f5" d="M36.08 36.08h27.84v27.84H36.08z"></path></svg></svg> <!----></g></g> <g transform="translate(67,15.9350004196167)"><g data-gra="path-name" fill-rule="" class="tp-name iconsvg-namesvg"><g transform="scale(1)"><g><path d="M3.51-2.02L3.51-2.02Q3.04-2.02 2.63-2.19 2.23-2.36 1.94-2.66 1.65-2.97 1.55-3.39 1.45-3.81 1.59-4.28L1.59-4.28 3.84-21.11 24.25-21.11 23.91-17.88 9.68-17.88 8.06-5.26 20.67-5.26 22.29-6.54 21.65-2.02 3.51-2.02ZM36.02-21.11L35.38-17.23 29.21-17.23 29.54-21.11 36.02-21.11ZM27.93-16.26L35.38-16.26 33.42-2.02 26.95-2.02 28.9-15.31 27.93-16.26ZM39.7-16.26L57.5-16.26 55.55-2.02 49.07-2.02 50.69-13.02 46.81-13.02 45.19-2.02 38.72-2.02 40.67-15.31 39.7-16.26ZM72.18-16.26L73.15-23.07 79.63-23.07 76.73-2.02 62.16-2.02Q61.18-2.02 60.69-2.66 60.2-3.31 60.2-4.28L60.2-4.28 61.82-16.26 72.18-16.26ZM71.87-13.02L67.79-13.02 66.54-5.26 70.66-5.26 71.87-13.02ZM86.58-2.33L82.77-15.28 81.82-16.26 88.94-16.26 90.69-9.11 93.79-15.62 93.15-16.26 100.57-16.26 89.71 3.78Q89.44 4.25 88.82 4.65 88.2 5.06 87.45 5.06L87.45 5.06 81.45 5.06 84.05 2.46 86.58-2.33ZM103.88-16.26L126.54-16.26 124.62-2.02 118.79-2.02 120.4-13.02 117.81-13.02 116.19-2.02 111.03-2.02 112.68-13.02 110.12-13.02 108.43-2.02 102.6-2.02 104.55-15.31 103.88-16.26ZM138.31-21.11L137.67-17.23 131.5-17.23 131.84-21.11 138.31-21.11ZM130.22-16.26L137.67-16.26 135.72-2.02 129.24-2.02 131.2-15.31 130.22-16.26ZM142.63-5.26L151.06-5.26 151.37-7.52 141.65-7.52 142.97-16.26 158.48-16.26 157.84-12.07 152.24-12.07 152.34-13.02 148.47-13.02 148.13-10.76 157.54-10.76 156.86-4.28Q156.63-3.31 155.78-2.66 154.94-2.02 153.96-2.02L153.96-2.02 141.01-2.02 141.65-6.54 142.63-5.26ZM162.8-5.26L171.23-5.26 171.53-7.52 161.82-7.52 163.14-16.26 178.65-16.26 178.01-12.07 172.41-12.07 172.51-13.02 168.63-13.02 168.3-10.76 177.71-10.76 177.03-4.28Q176.8-3.31 175.95-2.66 175.11-2.02 174.13-2.02L174.13-2.02 161.18-2.02 161.82-6.54 162.8-5.26Z" transform="translate(-1.5083333253860474, 23.06999969482422)"></path></g> <!----> <!----> <!----> <!----> <!----> <!----> <!----></g></g> <!----></g></g><defs v-gra="od"></defs></svg>